<svg width="197" height="197" viewBox="0 0 197 197" fill="none" xmlns="http://www.w3.org/2000/svg">
<g id="healthicons:ui-user-profile">
<g id="Group">
<path id="Vector" d="M131.333 82.0833C131.333 90.7913 127.874 99.1426 121.717 105.3C115.559 111.457 107.208 114.917 98.5 114.917C89.7921 114.917 81.4408 111.457 75.2833 105.3C69.1259 99.1426 65.6667 90.7913 65.6667 82.0833C65.6667 73.3754 69.1259 65.0241 75.2833 58.8667C81.4408 52.7092 89.7921 49.25 98.5 49.25C107.208 49.25 115.559 52.7092 121.717 58.8667C127.874 65.0241 131.333 73.3754 131.333 82.0833Z" fill="black"/>
<path id="Vector_2" fill-rule="evenodd" clip-rule="evenodd" d="M95.151 180.518C51.3719 178.761 16.4167 142.71 16.4167 98.5C16.4167 53.1654 53.1654 16.4167 98.5 16.4167C143.835 16.4167 180.583 53.1654 180.583 98.5C180.583 143.835 143.835 180.583 98.5 180.583C98.1252 180.586 97.7503 180.586 97.3755 180.583C96.6326 180.583 95.8898 180.559 95.151 180.518ZM45.8271 150.295C45.2134 148.532 45.0045 146.654 45.216 144.8C45.4274 142.946 46.0537 141.163 47.0485 139.584C48.0432 138.005 49.3808 136.67 50.962 135.679C52.5431 134.687 54.3273 134.065 56.182 133.857C88.178 130.316 109.019 130.636 140.859 133.931C142.716 134.125 144.505 134.739 146.089 135.728C147.672 136.718 149.009 138.055 149.998 139.639C150.987 141.223 151.601 143.012 151.794 144.869C151.987 146.726 151.753 148.603 151.111 150.356C164.757 136.549 172.399 117.912 172.375 98.5C172.375 57.7005 139.3 24.625 98.5 24.625C57.7005 24.625 24.625 57.7005 24.625 98.5C24.625 118.676 32.7143 136.964 45.8271 150.295Z" fill="black"/>
</g>
</g>
</svg>
